<?xml version="1.0" encoding="utf-8"?>
<!-- Svg Vector Icons : http://www.onlinewebfonts.com/icon -->
<!DOCTYPE svg PUBLIC "-//W3C//DTD SVG 1.1//EN" "http://www.w3.org/Graphics/SVG/1.1/DTD/svg11.dtd">
<svg version="1.1" xmlns="http://www.w3.org/2000/svg" xmlns:xlink="http://www.w3.org/1999/xlink" x="0px" y="0px" viewBox="0 0 1000 1000" enable-background="new 0 0 1000 1000" xml:space="preserve">
<metadata> Svg Vector Icons : http://www.onlinewebfonts.com/icon </metadata>
<g><path d="M961.4,176.8l-23.1,23.1l-46,46.1l-46-46.1l-46-46l-46-46.1l46-46.1l22.9-23c38.1-38.2,99.9-38.2,138.1,0C999.5,76.7,999.5,138.6,961.4,176.8z M915.4,84.6c-12.7-12.7-33.3-12.7-46,0l-23,23.1l46,46.1l23.1-23.1C928.1,118,928.1,97.4,915.4,84.6z M10,990.1l105.6-243l0.2,0.1l592.5-593.4l46,46L161.9,793.3l46,46l592.6-593.4l46,46L253.9,885.5"/></g>
</svg>